<svg xmlns="http://www.w3.org/2000/svg" viewBox="0 0 360 720" width="360" height="720">
  <rect width="360" height="720" fill="#f0f0f0" rx="20"/>
  <rect width="360" height="48" fill="#f0f0f0"/>
  <text x="20" y="32" font-family="sans-serif" font-size="18" fill="#333">←</text>
  <text x="180" y="32" font-family="sans-serif" font-size="16" fill="#333" text-anchor="middle" font-weight="bold">Accelerometer</text>

  <!-- LIVE indicator -->
  <rect x="142" y="56" width="76" height="22" rx="12" fill="#E8F5E9"/>
  <circle cx="154" cy="67" r="5" fill="#4CAF50"/>
  <text x="166" y="71" font-family="sans-serif" font-size="10" fill="#4CAF50" font-weight="bold">LIVE</text>

  <!-- 3-axis value display card -->
  <rect x="16" y="90" width="328" height="96" rx="14" fill="white" stroke="#e8e8e8" stroke-width="1"/>
  <!-- X -->
  <text x="72" y="118" font-family="sans-serif" font-size="11" fill="#006494" text-anchor="middle" font-weight="bold">X</text>
  <text x="72" y="152" font-family="sans-serif" font-size="26" fill="#333" text-anchor="middle" font-weight="bold">9.812</text>
  <text x="72" y="172" font-family="sans-serif" font-size="10" fill="#888" text-anchor="middle">m/s²</text>
  <line x1="144" y1="98" x2="144" y2="178" stroke="#eee" stroke-width="1"/>
  <!-- Y -->
  <text x="180" y="118" font-family="sans-serif" font-size="11" fill="#006494" text-anchor="middle" font-weight="bold">Y</text>
  <text x="180" y="152" font-family="sans-serif" font-size="26" fill="#333" text-anchor="middle" font-weight="bold">0.012</text>
  <text x="180" y="172" font-family="sans-serif" font-size="10" fill="#888" text-anchor="middle">m/s²</text>
  <line x1="216" y1="98" x2="216" y2="178" stroke="#eee" stroke-width="1"/>
  <!-- Z -->
  <text x="288" y="118" font-family="sans-serif" font-size="11" fill="#006494" text-anchor="middle" font-weight="bold">Z</text>
  <text x="288" y="152" font-family="sans-serif" font-size="26" fill="#333" text-anchor="middle" font-weight="bold">0.034</text>
  <text x="288" y="172" font-family="sans-serif" font-size="10" fill="#888" text-anchor="middle">m/s²</text>

  <!-- Chart card with gradient -->
  <rect x="16" y="198" width="328" height="220" rx="14" fill="white" stroke="#e8e8e8" stroke-width="1"/>
  <text x="28" y="395" font-family="sans-serif" font-size="8" fill="#999">9.813</text>
  <text x="28" y="330" font-family="sans-serif" font-size="8" fill="#999">9.811</text>
  <text x="28" y="265" font-family="sans-serif" font-size="8" fill="#999">9.809</text>
  <text x="28" y="220" font-family="sans-serif" font-size="8" fill="#999">9.807</text>

  <!-- Gradient fill area (under the line) -->
  <polygon points="40,390 50,380 60,370 70,355 80,340 90,320 100,300 110,280 120,265 130,258 140,260 150,270 160,285 170,300 180,318 190,335 200,348 210,355 220,358 230,352 240,340 250,325 260,310 270,295 280,285 290,280 300,282 310,290 315,300 315,390 40,390"
    fill="#006494" fill-opacity="0.08"/>

  <!-- Chart line -->
  <polyline points="40,390 50,380 60,370 70,355 80,340 90,320 100,300 110,280 120,265 130,258 140,260 150,270 160,285 170,300 180,318 190,335 200,348 210,355 220,358 230,352 240,340 250,325 260,310 270,295 280,285 290,280 300,282 310,290 315,300"
    fill="none" stroke="#006494" stroke-width="2.5" stroke-linecap="round" stroke-linejoin="round"/>

  <!-- Bottom row display -->
  <text x="180" y="440" font-family="sans-serif" font-size="11" fill="#888" text-anchor="middle">X: 9.812 m/s²  Y: 0.012 m/s²  Z: 0.034 m/s²</text>

  <!-- Bottom buttons -->
  <rect x="16" y="460" width="158" height="46" rx="23" fill="#006494"/>
  <text x="40" y="488" font-family="sans-serif" font-size="12" fill="white" font-weight="bold">▶ Start Logging</text>

  <rect x="186" y="460" width="158" height="46" rx="23" fill="#006494"/>
  <text x="210" y="488" font-family="sans-serif" font-size="12" fill="white" font-weight="bold">⬇ Export CSV</text>
</svg>
