<svg xmlns="http://www.w3.org/2000/svg" viewBox="0 0 360 720" width="360" height="720">
  <rect width="360" height="720" fill="#f0f0f0" rx="20"/>
  <!-- Top bar -->
  <rect width="360" height="48" fill="#f0f0f0"/>
  <text x="20" y="32" font-family="sans-serif" font-size="18" fill="#333">←</text>
  <text x="180" y="32" font-family="sans-serif" font-size="16" fill="#333" text-anchor="middle" font-weight="bold">History</text>
  <text x="330" y="32" font-family="sans-serif" font-size="14" fill="#006494">🗑</text>
  
  <!-- Filter chips -->
  <rect x="10" y="55" width="40" height="30" rx="16" fill="#006494"/>
  <text x="30" y="74" font-family="sans-serif" font-size="10" fill="white" text-anchor="middle">All</text>
  <rect x="56" y="55" width="90" height="30" rx="16" fill="white" stroke="#ddd" stroke-width="1"/>
  <text x="101" y="74" font-family="sans-serif" font-size="10" fill="#555" text-anchor="middle">Accelerometer</text>
  <rect x="152" y="55" width="70" height="30" rx="16" fill="white" stroke="#ddd" stroke-width="1"/>
  <text x="187" y="74" font-family="sans-serif" font-size="10" fill="#555" text-anchor="middle">Gyroscope</text>
  <rect x="228" y="55" width="85" height="30" rx="16" fill="white" stroke="#ddd" stroke-width="1"/>
  <text x="270" y="74" font-family="sans-serif" font-size="10" fill="#555" text-anchor="middle">Magnetometer</text>
  
  <!-- Reading items -->
  <rect x="12" y="95" width="336" height="60" rx="12" fill="white"/>
  <text x="24" y="118" font-family="sans-serif" font-size="12" fill="#333" font-weight="bold">Accelerometer</text>
  <text x="320" y="118" font-family="sans-serif" font-size="9" fill="#888" text-anchor="end">14:32:15.123</text>
  <text x="24" y="140" font-family="sans-serif" font-size="11" fill="#666">9.812, 0.012, 0.034</text>
  
  <rect x="12" y="163" width="336" height="60" rx="12" fill="white"/>
  <text x="24" y="186" font-family="sans-serif" font-size="12" fill="#333" font-weight="bold">Gyroscope</text>
  <text x="320" y="186" font-family="sans-serif" font-size="9" fill="#888" text-anchor="end">14:32:14.567</text>
  <text x="24" y="208" font-family="sans-serif" font-size="11" fill="#666">0.005, 0.001, 0.002</text>
  
  <rect x="12" y="231" width="336" height="60" rx="12" fill="white"/>
  <text x="24" y="254" font-family="sans-serif" font-size="12" fill="#333" font-weight="bold">Light Sensor</text>
  <text x="320" y="254" font-family="sans-serif" font-size="9" fill="#888" text-anchor="end">14:32:14.001</text>
  <text x="24" y="276" font-family="sans-serif" font-size="11" fill="#666">342.0</text>
  
  <rect x="12" y="299" width="336" height="60" rx="12" fill="white"/>
  <text x="24" y="322" font-family="sans-serif" font-size="12" fill="#333" font-weight="bold">Step Counter</text>
  <text x="320" y="322" font-family="sans-serif" font-size="9" fill="#888" text-anchor="end">14:32:10.890</text>
  <text x="24" y="344" font-family="sans-serif" font-size="11" fill="#666">1284</text>
  
  <rect x="12" y="367" width="336" height="60" rx="12" fill="white"/>
  <text x="24" y="390" font-family="sans-serif" font-size="12" fill="#333" font-weight="bold">Magnetometer</text>
  <text x="320" y="390" font-family="sans-serif" font-size="9" fill="#888" text-anchor="end">14:32:09.334</text>
  <text x="24" y="412" font-family="sans-serif" font-size="11" fill="#666">45.23, 12.45, 8.12</text>
  
  <rect x="12" y="435" width="336" height="60" rx="12" fill="white"/>
  <text x="24" y="458" font-family="sans-serif" font-size="12" fill="#333" font-weight="bold">Gravity</text>
  <text x="320" y="458" font-family="sans-serif" font-size="9" fill="#888" text-anchor="end">14:32:08.001</text>
  <text x="24" y="480" font-family="sans-serif" font-size="11" fill="#666">9.801, 0.001, 0.022</text>
</svg>
