<svg xmlns="http://www.w3.org/2000/svg" viewBox="0 0 360 720" width="360" height="720">
  <rect width="360" height="720" fill="#f0f0f0" rx="20"/>
  <rect width="360" height="48" fill="#f0f0f0"/>
  <text x="20" y="32" font-family="sans-serif" font-size="18" fill="#333">←</text>
  <text x="180" y="32" font-family="sans-serif" font-size="16" fill="#333" text-anchor="middle" font-weight="bold">History</text>
  <text x="330" y="32" font-family="sans-serif" font-size="14" fill="#006494">🗑</text>

  <!-- Search bar -->
  <rect x="12" y="55" width="336" height="38" rx="12" fill="white" stroke="#ddd" stroke-width="1"/>
  <text x="40" y="78" font-family="sans-serif" font-size="12" fill="#ccc">🔍</text>
  <text x="58" y="78" font-family="sans-serif" font-size="12" fill="#ccc">Search by sensor name...</text>

  <!-- Sort row -->
  <text x="16" y="106" font-family="sans-serif" font-size="11" fill="#888">Sort:</text>
  <text x="48" y="106" font-family="sans-serif" font-size="11" fill="#006494">Newest first</text>
  <text x="130" y="106" font-family="sans-serif" font-size="8" fill="#006494">▼</text>

  <!-- Session 1 -->
  <rect x="12" y="115" width="336" height="56" rx="12" fill="white" stroke="#e8e8e8" stroke-width="1"/>
  <circle cx="36" cy="143" r="20" fill="#C9E6FF"/>
  <text x="36" y="148" font-family="sans-serif" font-size="12" fill="#001E30" text-anchor="middle">📊</text>
  <text x="66" y="138" font-family="sans-serif" font-size="13" fill="#333" font-weight="bold">Accelerometer</text>
  <text x="66" y="157" font-family="sans-serif" font-size="11" fill="#888">Duration: 2m 34s</text>
  <text x="330" y="138" font-family="sans-serif" font-size="9" fill="#888" text-anchor="end">Jun 22 14:32</text>

  <!-- Session 2 -->
  <rect x="12" y="179" width="336" height="56" rx="12" fill="white" stroke="#e8e8e8" stroke-width="1"/>
  <circle cx="36" cy="207" r="20" fill="#C9E6FF"/>
  <text x="36" y="212" font-family="sans-serif" font-size="12" fill="#001E30" text-anchor="middle">🔄</text>
  <text x="66" y="202" font-family="sans-serif" font-size="13" fill="#333" font-weight="bold">Gyroscope</text>
  <text x="66" y="221" font-family="sans-serif" font-size="11" fill="#888">Duration: 45s</text>
  <text x="330" y="202" font-family="sans-serif" font-size="9" fill="#888" text-anchor="end">Jun 22 14:25</text>

  <!-- Session 3 -->
  <rect x="12" y="243" width="336" height="56" rx="12" fill="white" stroke="#e8e8e8" stroke-width="1"/>
  <circle cx="36" cy="271" r="20" fill="#C9E6FF"/>
  <text x="36" y="276" font-family="sans-serif" font-size="12" fill="#001E30" text-anchor="middle">💡</text>
  <text x="66" y="266" font-family="sans-serif" font-size="13" fill="#333" font-weight="bold">Light</text>
  <text x="66" y="285" font-family="sans-serif" font-size="11" fill="#888">Duration: 12s</text>
  <text x="330" y="266" font-family="sans-serif" font-size="9" fill="#888" text-anchor="end">Jun 22 14:10</text>

  <!-- Session 4 -->
  <rect x="12" y="307" width="336" height="56" rx="12" fill="white" stroke="#e8e8e8" stroke-width="1"/>
  <circle cx="36" cy="335" r="20" fill="#C9E6FF"/>
  <text x="36" y="340" font-family="sans-serif" font-size="12" fill="#001E30" text-anchor="middle">👣</text>
  <text x="66" y="330" font-family="sans-serif" font-size="13" fill="#333" font-weight="bold">Step Counter</text>
  <text x="66" y="349" font-family="sans-serif" font-size="11" fill="#888">Duration: 1h 15m</text>
  <text x="330" y="330" font-family="sans-serif" font-size="9" fill="#888" text-anchor="end">Jun 21 09:30</text>

  <!-- Session 5 -->
  <rect x="12" y="371" width="336" height="56" rx="12" fill="white" stroke="#e8e8e8" stroke-width="1"/>
  <circle cx="36" cy="399" r="20" fill="#C9E6FF"/>
  <text x="36" y="404" font-family="sans-serif" font-size="12" fill="#001E30" text-anchor="middle">🧭</text>
  <text x="66" y="394" font-family="sans-serif" font-size="13" fill="#333" font-weight="bold">Magnetometer</text>
  <text x="66" y="413" font-family="sans-serif" font-size="11" fill="#888">Duration: 3m 12s</text>
  <text x="330" y="394" font-family="sans-serif" font-size="9" fill="#888" text-anchor="end">Jun 21 08:45</text>

  <!-- Session 6 -->
  <rect x="12" y="435" width="336" height="56" rx="12" fill="white" stroke="#e8e8e8" stroke-width="1"/>
  <circle cx="36" cy="463" r="20" fill="#C9E6FF"/>
  <text x="36" y="468" font-family="sans-serif" font-size="12" fill="#001E30" text-anchor="middle">↓</text>
  <text x="66" y="458" font-family="sans-serif" font-size="13" fill="#333" font-weight="bold">Gravity</text>
  <text x="66" y="477" font-family="sans-serif" font-size="11" fill="#888">Duration: 28s</text>
  <text x="330" y="458" font-family="sans-serif" font-size="9" fill="#888" text-anchor="end">Jun 20 16:20</text>
</svg>
