<svg xmlns="http://www.w3.org/2000/svg" viewBox="0 0 360 720" width="360" height="720">
  <rect width="360" height="720" fill="#f0f0f0" rx="20"/>
  <rect width="360" height="48" fill="#f0f0f0"/>
  <text x="20" y="32" font-family="sans-serif" font-size="18" fill="#333">←</text>
  <text x="180" y="32" font-family="sans-serif" font-size="16" fill="#333" text-anchor="middle" font-weight="bold">Settings</text>

  <!-- Polling Rate Section -->
  <text x="16" y="78" font-family="sans-serif" font-size="14" fill="#333" font-weight="bold">Polling Rate</text>

  <rect x="16" y="90" width="328" height="172" rx="12" fill="white"/>
  <circle cx="36" cy="112" r="10" fill="none" stroke="#ccc" stroke-width="2"/>
  <text x="56" y="116" font-family="sans-serif" font-size="14" fill="#555">FASTEST</text>
  <line x1="16" y1="133" x2="344" y2="133" stroke="#eee" stroke-width="1"/>
  <circle cx="36" cy="155" r="10" fill="none" stroke="#ccc" stroke-width="2"/>
  <text x="56" y="159" font-family="sans-serif" font-size="14" fill="#555">GAME</text>
  <line x1="16" y1="176" x2="344" y2="176" stroke="#eee" stroke-width="1"/>
  <circle cx="36" cy="198" r="10" fill="#006494"/>
  <circle cx="36" cy="198" r="4" fill="white"/>
  <text x="56" y="202" font-family="sans-serif" font-size="14" fill="#333" font-weight="bold">UI (default)</text>
  <line x1="16" y1="219" x2="344" y2="219" stroke="#eee" stroke-width="1"/>
  <circle cx="36" cy="241" r="10" fill="none" stroke="#ccc" stroke-width="2"/>
  <text x="56" y="245" font-family="sans-serif" font-size="14" fill="#555">NORMAL</text>

  <!-- Database Stats Section -->
  <text x="16" y="290" font-family="sans-serif" font-size="14" fill="#333" font-weight="bold">Database Stats</text>

  <rect x="16" y="302" width="328" height="48" rx="12" fill="white"/>
  <text x="28" y="330" font-family="sans-serif" font-size="14" fill="#555">Total rows</text>
  <text x="330" y="330" font-family="sans-serif" font-size="14" fill="#333" font-weight="bold" text-anchor="end">1,284</text>

  <!-- Credits Section -->
  <text x="16" y="382" font-family="sans-serif" font-size="14" fill="#333" font-weight="bold">Credits</text>

  <rect x="16" y="394" width="328" height="140" rx="12" fill="white"/>
  <text x="180" y="422" font-family="sans-serif" font-size="16" fill="#006494" text-anchor="middle">&lt;/&gt;</text>
  <text x="180" y="442" font-family="sans-serif" font-size="12" fill="#888" text-anchor="middle">Built by</text>
  <text x="180" y="462" font-family="sans-serif" font-size="16" fill="#333" text-anchor="middle" font-weight="bold">Shreyash Pattewar</text>
  <text x="180" y="480" font-family="sans-serif" font-size="11" fill="#888" text-anchor="middle">Mobile &amp; AI Developer</text>
  <text x="180" y="515" font-family="sans-serif" font-size="12" fill="#006494" text-anchor="middle">shreyashp47.github.io</text>
  <text x="226" y="515" font-family="sans-serif" font-size="10" fill="#006494">↗</text>
</svg>
