<svg xmlns="http://www.w3.org/2000/svg" viewBox="0 0 360 720" width="360" height="720">
  <rect width="360" height="720" fill="#f0f0f0" rx="20"/>
  <!-- Top bar -->
  <rect width="360" height="48" fill="#f0f0f0"/>
  <text x="20" y="32" font-family="sans-serif" font-size="18" fill="#333">←</text>
  <text x="180" y="32" font-family="sans-serif" font-size="16" fill="#333" text-anchor="middle" font-weight="bold">Settings</text>
  
  <!-- Polling Rate Section -->
  <text x="20" y="80" font-family="sans-serif" font-size="14" fill="#333" font-weight="bold">Polling Rate</text>
  
  <rect x="16" y="92" width="328" height="172" rx="12" fill="white"/>
  
  <!-- FASTEST (not checked) -->
  <rect x="16" y="92" width="328" height="43" rx="12" fill="white"/>
  <circle cx="36" cy="114" r="10" fill="none" stroke="#ccc" stroke-width="2"/>
  <text x="56" y="118" font-family="sans-serif" font-size="14" fill="#555">FASTEST</text>
  <line x1="16" y1="135" x2="344" y2="135" stroke="#eee" stroke-width="1"/>
  
  <!-- GAME (not checked) -->
  <circle cx="36" cy="157" r="10" fill="none" stroke="#ccc" stroke-width="2"/>
  <text x="56" y="161" font-family="sans-serif" font-size="14" fill="#555">GAME</text>
  <line x1="16" y1="178" x2="344" y2="178" stroke="#eee" stroke-width="1"/>
  
  <!-- UI (checked) -->
  <circle cx="36" cy="200" r="10" fill="#006494"/>
  <circle cx="36" cy="200" r="4" fill="white"/>
  <text x="56" y="204" font-family="sans-serif" font-size="14" fill="#333" font-weight="bold">UI (default)</text>
  <line x1="16" y1="221" x2="344" y2="221" stroke="#eee" stroke-width="1"/>
  
  <!-- NORMAL (not checked) -->
  <circle cx="36" cy="243" r="10" fill="none" stroke="#ccc" stroke-width="2"/>
  <text x="56" y="247" font-family="sans-serif" font-size="14" fill="#555">NORMAL</text>
  
  <!-- Database Stats Section -->
  <text x="20" y="296" font-family="sans-serif" font-size="14" fill="#333" font-weight="bold">Database Stats</text>
  
  <rect x="16" y="308" width="328" height="52" rx="12" fill="white"/>
  <text x="28" y="336" font-family="sans-serif" font-size="14" fill="#555">Total rows</text>
  <text x="330" y="336" font-family="sans-serif" font-size="14" fill="#333" font-weight="bold" text-anchor="end">1,284</text>
</svg>
